<?xml version="1.0" standalone="no"?>
<!DOCTYPE svg PUBLIC "-//W3C//DTD SVG 1.1//EN" "http://www.w3.org/Graphics/SVG/1.1/DTD/svg11.dtd" >
<!--
2013-9-30: Created.
-->
<svg>
<metadata>
Created by iconfont
</metadata>
<defs>

<font id="iconfont" horiz-adv-x="1024" >
  <font-face
    font-family="iconfont"
    font-weight="500"
    font-stretch="normal"
    units-per-em="1024"
    ascent="896"
    descent="-128"
  />
    <missing-glyph />
    
    <glyph glyph-name="dianhua" unicode="&#58882;" d="M943.104 571.712c-23.744 56.64-57.536 107.264-101.76 151.808-44.032 44.288-94.272 78.016-151.232 101.568C633.28 848.576 573.824 860.288 511.424 860.288c-62.016 0-121.344-11.712-178.176-35.456-57.024-23.68-107.264-57.536-151.04-101.376C138.496 680.064 104.896 629.632 81.152 572.224 57.28 514.688 45.376 455.36 45.376 394.112c0-53.888 8.128-103.872 24.512-149.632 16.384-46.016 40.512-86.976 72.576-122.88 6.592-7.616 13.184-13.504 19.584-17.344 6.464-4.096 12.48-6.144 17.984-6.144 1.792 0 4.48 0.512 7.872 1.28 3.584 1.024 7.872 2.368 12.992 4.032-40.64 51.264-70.016 99.52-87.808 145.344C94.976 294.528 86.144 342.976 86.144 394.112c0 56.128 10.88 110.08 32.448 162.24S171.008 654.72 210.88 694.784C251.008 734.72 296.96 765.504 348.992 787.136c52.032 21.504 106.176 32.384 162.688 32.384 56.704 0 110.784-10.688 162.304-32 51.456-21.44 97.28-52.416 137.728-92.672 40.064-40.064 70.912-86.08 92.544-138.048 21.76-52.032 32.64-106.176 32.64-162.496 0-55.808-10.88-109.76-32.64-162.112-21.632-52.352-52.48-98.368-92.544-138.112-40.192-40-86.144-70.848-138.368-92.608-52.096-21.632-106.112-32.512-161.664-32.512-68.288 0-123.008 10.88-163.968 32.768-41.216 21.888-61.632 50.752-61.632 86.272 0 7.616 1.344 15.104 4.032 22.4 2.88 7.36 7.296 14.976 13.696 23.36 6.272-5.888 11.84-10.24 17.024-12.992C325.824 117.76 330.24 116.48 334.208 116.48c6.272 0 15.68 5.376 28.672 16 12.8 10.88 25.664 24.64 38.528 41.344 10.496 14.272 19.392 30.272 26.88 48.256 7.488 17.856 11.264 29.248 11.264 34.24 0 3.008-4.416 9.728-13.184 20.224-8.896 10.624-13.376 21.12-13.376 32 0 14.08 4.032 33.088 12.288 56.32 8.192 23.616 19.968 51.52 35.648 83.968 18.176 36.544 32.768 62.208 44.16 76.928C516.224 540.672 527.872 550.144 539.84 554.24c2.688 1.088 7.296 1.984 13.568 2.688 20.48 2.112 35.84 11.072 46.016 26.56 9.216 15.616 17.344 35.84 24.384 60.416C630.656 668.288 634.24 689.152 634.24 706.24c0 13.888-2.112 23.296-6.592 28.096C623.36 739.2 614.336 741.696 600.192 741.696c-21.888 0-40.384-1.536-55.744-4.608-15.296-3.2-26.88-7.616-34.88-13.76-9.792-6.912-25.344-23.872-46.72-51.136C441.408 645.12 419.584 614.144 397.248 579.392 356.608 515.776 323.2 447.872 297.152 375.872 270.912 303.744 257.92 249.728 257.92 213.632c0-7.104 1.536-14.528 4.608-22.272 3.264-7.872 8.768-18.112 16.768-30.976-10.88-13.632-18.88-27.136-24.064-40.256-5.12-13.248-7.808-26.624-7.808-40.128 0-44.864 24.256-81.6 72.512-110.144 48.448-28.48 112.192-42.752 191.488-42.752 60.928 0 120.064 11.904 177.792 35.776 57.536 23.744 108.288 57.344 152.128 100.992 43.904 43.904 77.76 94.528 101.44 151.872 23.872 57.344 35.776 116.864 35.776 178.496C978.56 455.872 966.784 515.072 943.104 571.712L943.104 571.712zM638.656 539.072c9.344-2.304 16.576-3.52 22.144-3.52 14.208 0 27.968 13.12 41.344 39.68 13.184 26.368 19.776 53.248 19.776 80.96 0 15.808-4.096 28.288-12.416 37.184-8.384 8.896-25.6 18.176-51.712 27.968 0-33.792-4.8-65.344-14.016-94.784-9.472-29.312-22.784-54.784-40.32-76.352C617.6 545.344 629.376 541.568 638.656 539.072L638.656 539.072zM459.776 248c-7.296-29.632-19.392-56.64-36.672-81.28-17.344-24.384-38.976-46.4-65.536-65.344 12.224-8.128 22.912-14.144 32.448-18.368 9.408-4.096 17.152-6.272 22.976-6.272 19.456 0 39.872 14.4 61.44 43.264 21.76 28.864 32.448 54.016 32.448 75.264 0 8-3.2 15.616-9.664 23.104C490.752 225.856 478.336 235.776 459.776 248L459.776 248zM459.776 248"  horiz-adv-x="1024" />

    
    <glyph glyph-name="shenghuodazhongdianping" unicode="&#58946;" d="M1023.52 446.208c-0.832 19.04-1.664 38.112-2.496 57.12-3.84 24.192-2.432 48.864-6.72 72.128-2.016 12.864-4 25.792-5.984 38.656-7.04 32.224-13.856 62.752-24.96 90.528-20.576 51.52-52.32 94.88-96.544 122.752-94.752 59.68-235.68 68.992-390.72 68.576-15.456-0.256-30.944-0.48-46.4-0.736-9.472-0.352-18.944-0.672-28.448-1.024-6.72-0.32-13.472-0.64-20.224-0.992-18.208-1.408-36.448-2.816-54.624-4.256-9.888-1.184-19.808-2.304-29.696-3.488-22.176-4.128-44.128-6.464-64.864-11.712-95.648-24.32-151.648-60.192-195.872-136.16-21.984-37.728-31.232-84.16-41.92-133.472-2.24-16.64-4.48-33.248-6.72-49.888-1.568-19.776-3.168-39.584-4.736-59.36-0.256-6.72-0.48-13.472-0.768-20.224-0.576-18.208-1.152-36.448-1.728-54.624l0-55.616c0.32-17.12 0.672-34.272 1.024-51.36 0.384-11.904 0.832-23.808 1.248-35.68 0.48-8.064 1.024-16.128 1.504-24.192 3.456-21.664 2.624-43.744 6.464-64.64 5.92-31.936 9.824-62.816 18.72-91.296 24.096-77.344 60.384-129.088 124.256-166.624 28.512-16.768 62.624-27.52 98.56-36.672 13.312-2.656 26.592-5.312 39.904-8 16.64-2.24 33.28-4.48 49.888-6.72 21.28-1.664 42.592-3.328 63.872-4.992 7.232-0.256 14.496-0.48 21.696-0.736 15.328-0.416 30.624-0.832 45.92-1.248 7.648-0.096 15.296-0.192 22.944-0.256l31.904 0c20.8 0.32 41.6 0.64 62.4 1.024 5.984 0.256 12 0.48 17.952 0.736 17.792 1.152 35.616 2.336 53.408 3.52 15.232 1.664 30.432 3.328 45.664 4.992 34.208 6.336 66.848 10.912 97.056 20.448 65.536 20.672 114.208 53.728 149.696 104.288 27.328 38.88 41.376 88.288 53.408 142.688 2.592 16.864 5.184 33.76 7.712 50.624 1.856 20.096 3.648 40.256 5.504 60.384 0.32 7.232 0.672 14.464 1.024 21.696 0.64 16.448 1.312 32.928 2.016 49.408l0 13.248c0.096 7.648 0.16 15.296 0.256 22.976l0 54.88c-0.192 7.808-0.352 15.616-0.512 23.424zM359.04 634.304l0 0 3.744 0.992c9.376 34.624 36.032 63.552 73.184 73.504s74.656-1.792 100.128-27.072c12.64-12.512 22.496-28.16 27.424-46.592 14.88-55.552-18.112-112.672-73.664-127.552s-112.672 18.08-127.552 73.632c-4.96 18.4-4.192 36.864 0.448 54.016l-3.744-0.992zM793.504 179.264c-29.76 111.136-144 177.056-255.104 147.264s-177.056-144-147.264-255.072l-100.608-26.976c-39.936 148.96 34.816 301.632 170.176 364.288-114.72-5.28-221.728 69.536-252.672 185.024l80.48 21.568c23.84-88.896 115.2-141.664 204.064-117.824 88.896 23.84 141.664 115.2 117.824 204.096l80.48 21.568c30.944-115.52-24.288-233.792-126.304-286.592 148.544 13.408 289.6-81.44 329.504-230.368l-100.576-26.976z"  horiz-adv-x="1025" />

    
    <glyph glyph-name="youxiang" unicode="&#58913;" d="M985.692892 327.263212c14.138814 0 25.611236 11.502002 25.611236 25.642215l0 332.254731c0 20.539474-6.424644 39.539792-17.262096 55.240347-0.445898 0.712117-0.552425 1.53356-1.054085 2.224692-0.849424 1.104651-2.011636 1.714438-2.987375 2.666192-17.842303 22.544115-45.120408 37.266134-76.095207 37.266134l-806.556155 0c-53.811716 0-97.397365-43.586848-97.397365-97.397365l0-590.048747c0-53.817512 43.586848-97.367785 97.397365-97.367785l806.557754 0c53.817512 0 97.397165 43.551872 97.397165 97.367785l0 81.154377c-0.079946 14.086849-11.496405 25.503309-25.611236 25.503309-14.110833 0-25.583255-11.41646-25.639416-25.503309l0-76.03205c0-28.329393-22.989813-51.275835-51.275835-51.275835L112.478532 48.957903c-28.284623 0-51.280032 22.945043-51.280032 51.275835L61.198499 680.028237c0 2.805098 0.39813 5.475488 0.821443 8.172659l448.106983-365.511583c0.022385 0 0.07435-0.027981 0.102331-0.056162 3.99669-2.980179 8.538411-4.250318 13.136493-4.752178 1.323303-0.239638 2.615826-0.159692 3.96711-0.189272 1.321904 0.027981 2.617226-0.050566 3.93773 0.189272 4.623265 0.500461 9.169383 1.771799 13.136493 4.752178 0.022385 0.02938 0.079946 0.056162 0.10373 0.056162l415.172513 361.066397c0.079946-1.243357 0.371548-2.457334 0.371548-3.727473l0-327.131005c0-14.133218 11.471223-25.636618 25.639217-25.636618l0 0L985.692892 327.263212zM112.477133 731.312466l796.299309 0c6.742828 0 13.166073-1.380864 19.087259-3.758252L527.331461 377.534128 97.884027 728.929482C102.53947 730.331131 107.371594 731.312466 112.477133 731.312466L112.477133 731.312466 112.477133 731.312466z"  horiz-adv-x="1027" />

    
    <glyph glyph-name="unie61d" unicode="&#58883;" d="M-21.034 913.584v0 0zM728.857 418.125q-15.523 3.111-20.157 9.301t-1.555 11.386l3.111 5.164q1.026 1.026 2.085 3.111t4.138 8.804 4.667 13.438 2.581 16.549-0.529 18.635-6.223 19.132-12.942 18.635q-14.497 14.497-37.766 18.635t-46.538 0.529-43.955-9.301-34.125-10.857l-13.438-6.223q-10.359-3.111-17.079-4.138t-10.359 0.529-5.693 3.111-1.555 7.249 1.026 9.83 2.581 12.942 3.111 13.968q0 12.412-1.555 23.268t-6.719 24.294-14.994 21.713-24.825 13.438-38.793 3.111-53.786-12.412q-36.21-12.412-73.446-36.707t-64.642-50.674-50.178-51.204-35.184-40.348l-11.386-16.549q-34.125-44.485-50.674-88.97t-15.523-67.225v-21.713q6.223-49.648 30.517-88.97t57.923-63.616 79.139-41.374 87.414-24.825 88.441-10.857q76.558-6.223 158.775 11.883t153.083 62.59 99.826 106.546q17.575 36.21 18.106 68.284t-10.857 52.23-29.491 35.681-34.125 22.772-28.432 9.301zM413.39 96.436q-111.709-5.164-189.79 43.459t-78.080 123.095q0 73.446 77.584 126.703t190.319 58.453 190.319-37.236 77.584-115.846q0-74.473-79.139-133.952t-188.764-64.642zM383.403 382.974q-29.987-3.111-53.786-13.968t-37.236-24.825-22.772-29.987-12.942-31.543-4.667-28.432-1.026-20.157l1.026-8.275v-4.138q0-3.111 2.085-12.412t5.693-17.079 11.883-17.079 19.661-15.523q68.284-33.099 127.232-20.157t95.159 59.478q14.497 17.575 19.132 43.459t-2.085 52.23-23.268 48.093-49.119 33.629-75.003 6.719zM346.166 187.458q-6.223-1.026-11.883-0.529t-10.359 2.085-9.301 3.607-7.745 5.693-5.693 7.249-4.138 8.275-1.555 9.83q0 11.386 6.223 22.242t17.079 18.635 24.294 8.804q9.301 1.026 18.106-0.529t14.994-5.164 10.857-8.275 6.719-10.857 2.085-13.438q0-11.386-6.719-21.713t-18.106-17.575-24.825-8.275zM434.077 261.931q-7.249-5.164-14.994-4.667t-10.857 6.719l-2.085 4.138q-1.026 2.085-1.026 4.138v4.138q0 3.111 1.026 5.164l2.085 4.138q1.026 2.085 3.111 3.111l3.111 4.138q8.275 6.223 16.020 5.164t10.857-8.275q3.111-4.138 2.581-9.301t-3.111-9.83-6.719-8.804zM801.277 478.133q6.223 0 11.386 3.111t8.275 7.745 4.138 9.83q1.026 1.026 1.026 3.111 12.412 117.932-82.748 134.481-27.936 5.164-51.733 1.026-7.249 0-12.412-3.607t-8.804-9.301-3.607-11.883q0-10.359 7.249-17.575t17.575-7.249q80.695 18.635 86.885-51.733 2.085-17.575-2.085-33.099 0-10.359 7.249-17.575t17.575-7.249zM783.702 769.802q-45.511 10.359-122.069-4.138-1.026 0-2.085-1.026l-1.026-2.085-1.026-1.026q-11.386-3.111-18.635-12.942t-7.249-21.216q0-15.523 10.359-25.851t24.825-10.359h3.111q1.026 0 4.667 1.026t7.745 1.555 8.804 2.085 8.275 3.111 13.968 1.555 25.354-1.555 33.099-7.745 36.21-15.523 36.21-25.851 31.543-38.262q26.91-61.035 10.359-117.932 0-1.026-0.529-2.085t-1.555-5.164-2.085-7.745-2.085-9.301-1.026-9.83q0-9.301 5.164-15.523t12.942-8.804 18.106-2.581q28.962 0 34.125 35.184 12.412 40.348 13.968 77.055t-5.164 64.642-20.157 52.23-31.046 41.374-39.322 31.046-41.903 22.242-41.903 13.438z"  horiz-adv-x="1024" />

    
    <glyph glyph-name="yibiao" unicode="&#58907;" d="M522.661888 852.117504c-5.834752 0-11.614208-0.231424-17.39776-0.44032v-210.405376h49.815552V808.134656c221.822976-16.637952 397.268992-202.323968 397.268992-428.335104 0-236.935168-192.75776-429.707264-429.688832-429.707264-236.929024 0-429.686784 192.772096-429.686784 429.707264 0 122.488832 51.607552 233.084928 134.117376 311.42912L200.5504 724.793344C108.224512 638.52544 50.343936 515.827712 50.343936 379.799552c0-260.44416 211.881984-472.32 472.32-472.32s472.313856 211.87584 472.313856 472.32c-0.002048 260.435968-211.877888 472.317952-472.315904 472.317952zM575.834112 412.133376l0.131072 0.114688-3.719168 2.844672c-0.858112 0.64512-1.640448 1.357824-2.53952 1.9456l-249.11872 190.570496-0.018432-0.016384c-2.691072 2.766848-6.42048 4.509696-10.590208 4.509696a14.81728 14.81728 0 0 1-14.819328-14.819328c0-3.848192 1.55648-7.276544 3.960832-9.91232l-0.022528-0.022528 0.219136-0.27648c0.1024-0.098304 0.16384-0.219136 0.260096-0.319488l196.66944-245.078016 0.034816 0.028672c9.691136-13.912064 25.737216-23.06048 43.982848-23.06048 29.618176 0 53.630976 24.008704 53.630976 53.630976-0.004096 15.906816-7.063552 30.03392-18.061312 39.860224z"  horiz-adv-x="1024" />

    
    <glyph glyph-name="dingwei" unicode="&#58914;" d="M706.5 173.5c-2.2 0-4.4 0.6-6.4 1.9-5.5 3.6-7.1 10.9-3.5 16.4 1.3 2 2.5 3.9 3.8 5.9 3.5 5.5 10.9 7.1 16.4 3.6 5.5-3.5 7.1-10.9 3.6-16.4-1.3-2-2.6-4-3.8-6-2.4-3.5-6.2-5.4-10.1-5.4zM519.9 639.5c63.7 0 115.4-54.7 115.4-122.2s-51.7-122.2-115.4-122.2-115.4 54.7-115.4 122.2 51.6 122.2 115.4 122.2m0 23.8c-18.9 0-37.3-3.9-54.6-11.7-16.6-7.4-31.5-18-44.2-31.5-26-27.5-40.3-64-40.3-102.7s14.3-75.2 40.3-102.7c12.8-13.5 27.6-24.1 44.2-31.5 17.3-7.7 35.7-11.7 54.6-11.7s37.3 3.9 54.6 11.7c16.6 7.4 31.5 18 44.2 31.5 26 27.5 40.3 64 40.3 102.7s-14.3 75.2-40.3 102.7c-12.8 13.5-27.6 24.1-44.2 31.5-17.3 7.8-35.7 11.7-54.6 11.7zM519.9-80.9c-3.5 0-6.9 1.6-9.1 4.3-0.8 1-82.1 98.6-162.3 217.5-108.6 160.9-163.6 282.4-163.6 361 0 92.1 34.8 178.6 98 243.8 30.8 31.7 66.6 56.6 106.5 74 41.3 18 85.3 27.2 130.5 27.2 45.3 0 89.2-9.1 130.5-27.2 39.9-17.4 75.7-42.3 106.5-74 63.2-65.1 98-151.7 98-243.8 0-65-38.1-160.2-113.2-282.9-3.4-5.6-10.7-7.4-16.3-3.9-5.6 3.4-7.4 10.7-3.9 16.3 72.8 118.9 109.7 209.9 109.7 270.5 0 177.1-139.6 321.2-311.3 321.2-171.6 0-311.3-144.1-311.3-321.2 0-160.5 259-487.8 311.3-552.2 22.4 27.6 82.9 103.6 144.3 193.4 3.7 5.4 11.1 6.8 16.5 3.1 5.4-3.7 6.8-11.1 3.1-16.5C606.1 16 529.8-75.7 529-76.6c-2.3-2.7-5.6-4.3-9.1-4.3z"  horiz-adv-x="1024" />

    
    <glyph glyph-name="tonghua" unicode="&#58999;" d="M562.944 537.6512h-102.4v-102.3488h102.4V537.6512z m204.7488 0h-102.4v-102.3488h102.4V537.6512z m153.6-332.7488c-63.744 0-125.184 10.1376-182.7328 29.1328a51.3536 51.3536 0 0 1-51.968-12.5952l-112.6912-112.7936a772.2496 772.2496 0 0 0-337.408 337.1008l112.7424 112.896c14.08 14.08 18.1248 34.2528 12.4928 52.0192a584.0384 584.0384 0 0 0-29.1328 182.9888c0 28.4672-22.784 51.2-51.2 51.2H102.144c-28.416 0-51.2-22.784-51.2-51.2 0-480.768 389.632-870.4 870.3488-870.4a50.9952 50.9952 0 0 1 51.2512 51.2V153.6a51.0464 51.0464 0 0 1-51.2512 51.3024z m-51.2 332.7488v-102.3488h102.4512V537.6512h-102.4512z m0 0"  horiz-adv-x="1024" />

    
    <glyph glyph-name="tuandui" unicode="&#59153;" d="M324.676267 728.746667a208.759467 208.759467 0 1 1 0-417.655467 208.759467 208.759467 0 0 1 0 417.655467zM232.106667 241.4592A231.970133 231.970133 0 0 1 0 9.489067v-107.7248h318.327467l61.2352 285.354666c4.369067 19.319467 11.605333 37.751467 21.162666 54.340267H232.106667zM1496.8832 728.746667a208.759467 208.759467 0 1 1 0-417.5872 208.759467 208.759467 0 0 1 0 417.5872z m92.706133-487.287467h-147.319466c9.557333-16.5888 16.7936-34.816 21.162666-53.930667l61.2352-285.764266h296.96v107.7248a231.970133 231.970133 0 0 1-232.106666 231.970133z m-425.7792 408.576a242.210133 242.210133 0 1 0-484.420266 0 242.210133 242.210133 0 0 0 484.420266 0zM921.6 240.2304c14.882133 0 33.5872 0 44.782933 11.127467 11.195733 11.195733 29.627733 40.96 29.696 63.351466 0.136533 26.077867-45.4656 29.832533-74.478933 29.832534-29.013333 0-74.615467-3.754667-74.5472-29.832534 0.068267-22.3232 18.568533-52.155733 29.696-63.351466 11.195733-11.127467 29.969067-11.127467 44.8512-11.127467z m-556.6464-338.466133l59.1872 275.729066a149.026133 149.026133 0 0 0 123.767467 114.8928l215.313066 31.675734 107.997867-247.808 12.4928 123.630933a7.509333 7.509333 0 0 0 7.509333 6.826667h60.893867a7.509333 7.509333 0 0 0 7.3728-6.7584l13.789867-120.558934 106.7008 244.667734 215.313066-31.675734c61.0304-9.0112 110.250667-54.6816 123.767467-114.8928l59.1872-275.797333H364.9536z"  horiz-adv-x="1843" />

    
    <glyph glyph-name="fangzi" unicode="&#58896;" d="M640 0h192V426.624h42.667v-426.837c0-23.467-19.03-42.475-42.667-42.475H597.333V170.667H426.667v-213.334H192c-23.573 0-42.667 18.987-42.667 42.454V426.645H192V0h192V213.333h256V0zM100.032 389.867A21.333 21.333 0 1 0 70.635 420.8L466.283 796.65a66.688 66.688 0 0 0 91.434 0l395.67-375.85a21.333 21.333 0 1 0-29.398-30.933l-395.648 375.85a24.021 24.021 0 0 1-32.682 0l-395.606-375.85zM832 704H704a21.333 21.333 0 0 0 0 42.667h149.333a21.333 21.333 0 0 0 21.334-21.334V576A21.333 21.333 0 0 0 832 576V704z"  horiz-adv-x="1024" />

    
    <glyph glyph-name="douyin" unicode="&#58886;" d="M454.572 514.224v-131.033s-32.354 22.648-76.032 8.089c1.618 0-88.973-29.119-55.001-126.18 0 0 4.853-17.795 24.265-32.354 0 0 24.266-30.737 59.855-37.207 0 0 55.001-9.706 85.738 32.354 0 0 17.794 17.794 21.03 50.148V737.466H637.37s12.942-113.239 135.887-137.504v-119.71s-45.296-11.323-135.887 35.59l-1.617-216.77s4.853-80.886-61.473-155.3c0 0-71.178-82.502-182.8-71.178 0 0-119.708 6.47-169.857 105.15 0 0-76.032 124.562 24.265 253.978 1.618 1.618 69.561 98.68 208.683 82.502zM422.218 546.578v-131.033s-32.354 22.648-76.032 8.088c1.618 0-88.973-29.118-55.001-126.18 0 0 4.853-17.794 24.265-32.353 0 0 24.266-30.737 59.855-37.207 0 0 55.001-9.707 85.738 32.353 0 0 17.794 17.795 21.03 50.149V769.82h122.944S617.96 656.58 740.904 632.316v-119.71s-45.296-11.323-135.887 35.59L603.4 331.425s4.853-80.885-61.473-155.299c0 0-71.178-82.502-182.799-71.178 0 0-119.71 6.47-169.858 105.15 0 0-76.031 124.562 24.266 255.596 1.617 0 69.56 97.061 208.682 80.884zM438.395 530.401v-131.033s-32.354 22.648-76.032 8.089c1.618 0-88.973-29.119-55.001-126.18 0 0 4.853-17.795 24.265-32.354 0 0 24.266-30.737 59.855-37.207 0 0 55.001-9.707 85.738 32.354 0 0 17.794 17.794 21.03 50.148V753.643h122.944s12.942-113.239 135.887-137.504v-119.71s-45.296-11.323-135.887 35.59l-1.617-216.771s4.853-80.885-61.473-155.299c0 0-71.178-82.502-182.8-71.178 0 0-119.708 6.47-169.857 105.15 0 0-76.032 124.562 24.265 253.978 1.618 1.618 69.561 98.68 208.683 82.502z"  horiz-adv-x="1024" />

    
    <glyph glyph-name="weixin5" unicode="&#60580;" d="M693.248 550.447c11.776 0 23.32-0.931 34.91-2.188-31.373 146.06-187.486 254.557-365.755 254.557C163.188 802.816 0 666.996 0 494.546c0-99.515 54.272-181.249 145.036-244.643l-36.26-109.056 126.65 63.534c45.383-9.03 81.735-18.153 126.977-18.153 11.31 0 22.621 0.559 33.838 1.49a269.638 269.638 0 0 0-11.17 75.869c0.093 158.394 135.959 286.86 308.177 286.86z m-194.84 98.304c27.323 0 45.383-17.967 45.383-45.29 0-27.182-18.06-45.334-45.382-45.334-27.23 0-54.412 18.152-54.412 45.335-0.093 27.322 27.183 45.289 54.412 45.289zM244.69 558.08c-27.182 0-54.644 18.153-54.644 45.335 0 27.322 27.462 45.289 54.644 45.289s45.243-17.967 45.243-45.289c0-27.182-18.06-45.335-45.243-45.335zM1024 267.916c0 144.942-145.036 262.981-307.898 262.981-172.451 0-308.224-118.039-308.224-262.981 0-145.13 135.773-262.982 308.224-262.982 36.12 0 72.61 9.17 108.823 18.2l99.421-54.413-27.182 90.531C969.82 113.897 1024 186.228 1024 267.916z m-407.738 45.381c-18.106 0-36.306 17.967-36.306 36.26 0 18.059 18.2 36.212 36.306 36.212 27.415 0 45.335-18.153 45.335-36.213 0-18.292-17.92-36.259-45.382-36.259z m199.26 0c-17.92 0-35.979 17.967-35.979 36.26 0 18.059 18.06 36.212 35.98 36.212 27.229 0 45.382-18.153 45.382-36.213 0-18.292-18.153-36.259-45.382-36.259z"  horiz-adv-x="1024" />

    
    <glyph glyph-name="jia" unicode="&#58881;" d="M880.157 448.28H575.934V752.505c0 35.916-29.11 65.025-65.025 65.025s-65.025-29.11-65.025-65.025v-304.223H141.661a65.025 65.025 0 0 1 0-130.05h304.223v-304.224c0-35.915 29.11-65.025 65.025-65.025s65.025 29.11 65.025 65.025V318.231H880.15a65.025 65.025 0 0 1 65.025 65.025 65.01 65.01 0 0 1-65.018 65.025z"  horiz-adv-x="1024" />

    
    <glyph glyph-name="in" unicode="&#58897;" d="M230.515071 778.997216c0-60.106959-44.39-108.800985-117.389594-108.800985-68.715011 0-113.103987 48.694025-113.103987 108.800985 0 61.538565 45.865607 108.816335 115.976408 108.816335C186.125071 887.81355 229.101885 840.535781 230.515071 778.997216zM5.78475-115.841076 5.78475 584.24158 223.402069 584.24158l0-700.082656L5.78475-115.841076zM353.61983 360.923422c0 87.322811-2.87242 160.322405-5.760191 223.317135L536.850991 584.240557l10.064216-97.368608 4.300956 0c28.609595 45.850258 98.783841 113.105011 216.188784 113.105011 143.126768 0 250.514567-95.927793 250.514567-302.096363L1017.919515-115.889171 800.318568-115.889171 800.318568 272.099421c0 90.192162-31.56081 151.774729-110.276592 151.774729-60.110029 0-95.847975-41.514509-111.62838-81.603553-5.760191-14.304797-7.176446-34.325783-7.176446-54.407144L571.237149-115.889171 353.61983-115.889171 353.61983 360.923422z"  horiz-adv-x="1024" />

    
    <glyph glyph-name="-zimuf" unicode="&#58958;" d="M140.54902 896h1024v-1024h-1024zM782.554353 693.845333c-70.4 0-84.48-25.344-84.48-122.965333h106.069333v-92.928h-106.069333V64h-117.333333V477.952H500.015686V570.88h80.725334v4.693333c0 175.530667 74.154667 205.568 189.610666 205.568 19.712 0 39.424-1.877333 58.197334-4.693333v-86.357333c-14.08 2.816-30.037333 3.754667-45.994667 3.754666z"  horiz-adv-x="1445" />

    
    <glyph glyph-name="Google" unicode="&#58962;" d="M543.872 273.28c-14.08 25.344-29.952 45.312-47.232 59.776-17.408 14.464-33.152 28.416-47.232 41.856-14.208 13.44-21.248 23.808-21.248 31.104 0 7.936 5.376 17.152 16.384 27.648 10.88 10.496 22.912 20.992 36.352 31.488 13.44 10.496 25.6 27.392 36.48 50.56s16.256 50.048 16.256 80.512c0 55.04-16 93.824-47.872 116.224 0.768 0 6.272 0.512 16.896 1.664 10.496 1.024 17.92 2.176 22.272 3.2 4.224 1.152 10.496 2.816 18.432 5.376 7.936 2.56 13.568 6.144 16.896 10.88 3.072 4.608 4.736 10.24 4.736 16.768 0 7.936-8.064 11.904-23.936 11.904-2.176 0-20.992 0.256-56.448 0.512-35.584 0.384-61.824 0.384-78.848 0-17.024-0.384-38.912-1.792-65.664-4.352-26.88-2.56-48.256-6.272-64.128-11.392-41.984-13.824-75.52-36.224-100.608-67.456-24.96-31.104-37.504-68.096-37.504-110.848 0-50.688 16-91.648 47.872-122.752 31.872-31.104 73.216-46.336 123.904-45.696h6.528c0-17.408 0.768-30.08 2.176-38.144 1.408-7.936 3.328-12.16 5.504-12.544 2.176-0.384 4.864-2.176 8.064-5.376s6.272-8.448 9.216-15.744c-39.936 0-77.056-4.352-111.488-12.928-34.432-8.704-65.28-26.112-92.928-52.224-27.52-26.112-41.216-59.008-41.216-98.944 0-55.808 22.272-97.28 66.816-124.416 44.544-27.136 96.512-40.704 155.904-40.704 66.688 0 124.544 16.512 173.44 49.536 48.896 33.024 73.472 81.28 73.472 145.152-0.128 27.52-7.168 53.888-21.248 79.36zM274.176 522.624c-18.432 33.024-27.648 66.048-27.648 99.456 0 25.344 5.632 47.104 16.896 65.152 11.264 18.048 28.8 27.136 52.736 27.136 31.104 0 55.936-16.512 74.368-49.408 18.56-33.024 27.648-66.176 27.648-99.456 0-25.344-5.632-47.104-16.896-65.152-11.264-18.176-28.8-27.264-52.608-27.264-31.232 0.128-55.936 16.512-74.496 49.536z m157.056-409.088c-31.232-19.584-63.872-29.44-97.92-29.44s-65.024 8.704-92.928 26.112c-27.904 17.408-41.856 42.112-41.856 73.984 0 34.816 14.848 60.928 44.544 78.208 29.696 17.408 62.976 26.112 99.968 26.112 33.408 0 64.128-8.576 92.416-25.472 28.16-17.024 42.368-41.216 42.368-72.32 0.128-32-15.36-57.728-46.592-77.184zM798.72 573.184h131.456v65.28H798.72V771.072h-65.28v-132.608H600.832v-65.28H733.44v-131.456h65.28z"  horiz-adv-x="1024" />

    
    <glyph glyph-name="niaolei" unicode="&#59134;" d="M1018.741622 603.703351a450.435459 450.435459 0 0 0-101.874163-108.488648v-25.973622a611.397189 611.397189 0 0 0-161.473729-411.066811 549.099243 549.099243 0 0 0-433.470271-183.379027A578.643027 578.643027 0 0 0 0-31.965405c16.882162-2.352432 33.916541-3.210378 50.937081-2.546163a415.190486 415.190486 0 0 1 261.299892 90.153514 211.483676 211.483676 0 0 0-121.731459 42.786595 203.748324 203.748324 0 0 0-74.876541 101.874162c12.938378-2.643027 26.015135-4.386595 39.216432-5.092325a216.423784 216.423784 0 0 1 56.541406 7.638487 197.230703 197.230703 0 0 0-120.209297 71.306378 203.900541 203.900541 0 0 0-49.913082 133.465946v5.092325a194.172541 194.172541 0 0 1 93.211676-28.533622 203.748324 203.748324 0 0 0-90.665513 175.74054 199.347892 199.347892 0 0 0 25.973621 101.874163 573.550703 573.550703 0 0 1 431.948108-215.455136c-2.919784 15.110919-4.621838 30.443243-5.092324 45.830919-1.425297 114.203676 90.001297 207.927351 204.204973 209.352649h5.133838a196.718703 196.718703 0 0 0 152.811243-64.691892 474.637838 474.637838 0 0 1 131.929946 50.923243 193.452973 193.452973 0 0 0-90.665514-114.079135 542.429405 542.429405 0 0 1 118.687136 30.041946z"  horiz-adv-x="1024" />

    
    <glyph glyph-name="che" unicode="&#58982;" d="M816.128-13.312c-38.4 0-69.12 31.232-69.12 69.12v45.568H277.504v-45.568c0-38.4-31.232-69.12-69.12-69.12h-61.44c-38.4 0-69.12 31.232-69.12 69.12V256l2.048 18.944c4.096 40.448 10.24 100.864 17.92 139.776-18.432 5.12-46.592 15.36-46.592 51.2v27.648c0 28.672 23.04 51.712 51.712 51.712h79.872l34.304 126.464c8.704 57.344 56.832 100.352 114.688 102.912h360.96c58.88-2.56 107.008-46.08 115.2-103.936l34.304-125.44H921.6c28.16-0.512 51.2-23.552 51.2-51.712V465.92c0-37.888-30.72-48.128-46.08-51.712 7.68-41.472 14.848-109.056 18.944-145.92l1.024-9.728V56.32c0-38.4-31.232-69.12-69.12-69.12h-61.44z m-10.752 69.632c0-6.144 5.12-10.752 10.752-10.752h61.44c6.144 0 10.752 5.12 10.752 10.752v45.568h-83.456v-45.568z m-669.184 0c0-6.144 5.12-10.752 10.752-10.752h61.44c6.144 0 10.752 5.12 10.752 10.752v45.568H136.192v-45.568z m754.176 105.472v95.232c-4.608 56.832-12.8 114.688-24.064 171.008-3.072 7.68-3.072 16.896 0.512 24.576 4.096 8.192 11.776 14.336 20.48 15.872H902.144c4.096 0.512 8.704 1.024 12.8 2.56v15.36h-73.216c-21.504-46.592-68.096-76.288-119.808-76.288H303.104c-51.712 0-98.304 30.208-119.808 76.8H109.568V471.04c3.584-1.024 9.728-2.56 14.848-2.56h1.024l13.824-2.048c3.072-0.512 5.632-1.536 7.68-2.56 6.656-3.584 11.776-9.728 14.336-17.408 2.048-6.656 1.536-14.336-1.536-20.992-11.264-56.832-19.456-115.2-24.064-173.056v-91.136h754.688z m-655.36 354.304c9.216-28.16 35.84-47.616 65.536-47.616h422.912c29.696 0 56.32 19.456 65.536 47.616l-37.888 141.824v0.512c-3.072 31.744-27.648 55.808-58.88 57.856H332.288c-30.208-2.56-54.784-26.112-58.368-56.32v-1.024l-38.912-142.848zM294.4 384c-49.664 0-90.112-40.448-90.112-90.112s40.448-90.112 90.112-90.112 90.112 40.448 90.112 90.112c-0.512 49.664-40.96 90.112-90.112 90.112z m31.232-121.856c-5.632-5.632-12.288-9.728-19.968-11.776h-11.264c-24.064 0-43.52 19.456-43.52 43.52s19.456 43.52 43.52 43.52 43.52-19.456 43.52-44.032c0-11.776-4.096-23.04-12.288-31.232zM728.064 384c-49.664 0-90.112-40.448-90.112-90.112s40.448-90.112 90.112-90.112 90.112 40.448 90.112 90.112c-0.512 49.664-40.96 90.112-90.112 90.112z m31.232-121.856c-5.632-5.632-12.288-9.728-19.968-11.776h-11.264c-24.064 0-43.52 19.456-43.52 43.52s19.456 43.52 43.52 43.52 43.52-19.456 43.52-44.032c0-11.776-4.096-23.04-12.288-31.232z"  horiz-adv-x="1024" />

    
    <glyph glyph-name="xiuchedian" unicode="&#58894;" d="M268.3 386.8c-40.3 0-73.2-32.8-73.2-73.2 0-40.3 32.8-73.2 73.2-73.2 40.3 0 73.2 32.8 73.2 73.2-0.1 40.4-32.9 73.2-73.2 73.2z m39.6-73.2c0-21.9-17.8-39.6-39.6-39.6-21.9 0-39.6 17.8-39.6 39.6 0 21.9 17.8 39.6 39.6 39.6 21.8 0.1 39.6-17.7 39.6-39.6zM553.2 495.7c-15.2 11.8-26.4 24-35.2 38.3l-4.9 8H271.2c4.3 59.7 55.1 107.5 115.5 107.5h107.4l3.3 12.4c5.3 19.7 12.9 35.8 24 50.7l20.1 26.8H386.7c-54.9 0-106.6-21.4-145.5-60.3-38.9-38.9-60.3-90.5-60.3-145.5v-17.9c-17.1-12.3-31.1-28.4-40.8-46.6-10.2-19.1-15.6-40.7-15.6-62.4v-225.6c0-29 24.5-53.4 53.4-53.4h83.2c29 0 53.4 24.5 53.4 53.4v3h249.6V486.5l-10.9 9.1v0.1zM281.1 217.6v-36.5c0-10.4-9.5-19.9-19.9-19.9H178c-10.4 0-19.9 9.5-19.9 19.9V406.7c0 34.8 18.1 66.9 48.5 85.9l7.9 4.9v36.1c0 94.9 77.2 172.2 172.2 172.2h91.4c-3.6-7.3-6.7-14.8-9.4-22.9h-82c-39.9 0-77.4-15.5-105.6-43.7-28.2-28.2-43.7-65.7-43.7-105.6v-25.2h257.3c9.7-13.9 21.2-25.9 36-37.7v-253.1H281.1zM823.4 695c-20.5 27.6-48.7 47.5-81.5 57.6l-21.7 6.7v-135.7h-52.5v136l-21.8-6.9c-31.8-10.1-60.4-30.5-80.8-57.5-21.2-28.2-32.4-61.6-32.4-96.6 0-27 6.9-53.8 20-77.4 12.5-22.7 30.4-42 52-56.1v-272.6c0-17.4 6.7-33.7 18.8-45.9 12.1-12.1 28.4-18.8 45.9-18.8h49.3c17.4 0 33.7 6.7 45.9 18.8 12.1 12.1 18.8 28.4 18.8 45.9V465.1c20.4 13.6 37.7 31.8 50 52.8 14.3 24.4 21.9 52.2 21.9 80.6 0 35.1-11 68.5-31.9 96.5zM629.6 489c-39.1 22.2-63.4 64.1-63.4 109.5 0 47.1 26.4 90.6 68 113v-121.3h119.5V711.7c41.6-21.8 68-65.5 68-113.2 0-44.8-24.4-86.8-63.6-109.6l-8.3-4.8v-291.7c0-17.5-13.7-31.2-31.2-31.2h-49.3c-17.5 0-31.2 13.7-31.2 31.2V484.2l-8.5 4.8z"  horiz-adv-x="1024" />

    
    <glyph glyph-name="changyongtubiao_yibiaopan" unicode="&#58891;" d="M923.75 556.8299999999999a449 449 0 1 1 35.19-174.26 446.13 446.13 0 0 1-35.19 174.26zM511.29-1.080000000000041c-211.54 0-383.65 172.1-383.65 383.65s172.1 383.65 383.65 383.65 383.65-172.1 383.65-383.65-172.11-383.65-383.65-383.65zM511.29 597.76a28.54 28.54 0 0 1 28.54 28.54v44.8a28.54 28.54 0 0 1-28.54 28.54 28.54 28.54 0 0 1-28.54-28.54v-44.8a28.54 28.54 0 0 1 28.54-28.54zM437.69 584.78a28.54 28.54 0 0 1 17.06 36.58l-15.32 42.09a28.54 28.54 0 0 1-36.58 17.06 28.54 28.54 0 0 1-17.06-36.58l15.32-42.09a28.54 28.54 0 0 1 36.58-17.06zM347.69 621.94a28.54 28.54 0 0 1-40.21 3.52 28.54 28.54 0 0 1-3.48-40.21l28.79-34.31a28.54 28.54 0 0 1 40.21-3.52 28.54 28.54 0 0 1 3.52 40.21zM314.48 529.1600000000001l-38.79 22.4a28.54 28.54 0 0 1-39-10.45 28.54 28.54 0 0 1 10.45-39l38.79-22.4a28.54 28.54 0 1 1 28.54 49.44zM222.19 404.57l44.11-7.78a28.54 28.54 0 0 1 33.07 23.15A28.54 28.54 0 0 1 276.22 453l-44.11 7.78A28.54 28.54 0 0 1 199 437.63a28.54 28.54 0 0 1 23.19-33.06zM299.37 345.21000000000004a28.54 28.54 0 0 1-33.07 23.15l-44.11-7.78A28.54 28.54 0 0 1 199 327.51a28.54 28.54 0 0 1 33.07-23.15l44.11 7.78a28.54 28.54 0 0 1 23.19 33.07zM324.93 275a28.54 28.54 0 0 1-39 10.45L247.15 263a28.54 28.54 0 0 1-10.45-39 28.54 28.54 0 0 1 39-10.45L314.48 236a28.54 28.54 0 0 1 10.45 39zM775.43 263l-38.79 22.4a28.54 28.54 0 0 1-39-10.45 28.54 28.54 0 0 1 10.45-39l38.79-22.4a28.54 28.54 0 0 1 39 10.45 28.54 28.54 0 0 1-10.45 39zM800.39 360.58000000000004l-44.11 7.78a28.54 28.54 0 0 1-33.07-23.15 28.54 28.54 0 0 1 23.15-33.07l44.11-7.78a28.54 28.54 0 0 1 33.07 23.15 28.54 28.54 0 0 1-23.15 33.07zM723.21 419.94a28.54 28.54 0 0 1 33.07-23.15l44.11 7.78a28.54 28.54 0 0 1 23.15 33.07 28.54 28.54 0 0 1-33.07 23.15L746.36 453a28.54 28.54 0 0 1-23.15-33.06zM746.89 551.55l-38.79-22.4a28.54 28.54 0 0 1-10.45-39 28.54 28.54 0 0 1 39-10.45l38.79 22.4a28.54 28.54 0 1 1-28.54 49.44zM584.89 584.78a28.54 28.54 0 0 1 36.58 17.06l15.32 42.09a28.54 28.54 0 0 1-17.06 36.58 28.54 28.54 0 0 1-36.58-17.06l-15.32-42.09a28.54 28.54 0 0 1 17.06-36.58zM760.68 604.06l-28.28 28.28L720.09 620a28.58 28.58 0 0 1-5 5.43 28.54 28.54 0 0 1-40.21-3.52l-28.79-34.31a28.54 28.54 0 0 1 2.38-39.21l-83.16-83.16a100 100 0 1 1 28.92-27.65zM566.12 380.61a56.53 56.53 0 1 0-33.73 51.73l-17.28-17.28a35.32 35.32 0 1 1 29.65-26.92l16.16 16.16a56.29 56.29 0 0 0 5.2-23.69z"  horiz-adv-x="1024" />

    
    <glyph glyph-name="xicheshou" unicode="&#59042;" d="M303.616 68.608h15.36v-47.104c0-16.384 13.312-30.208 30.208-30.208 16.384 0 30.208 13.312 30.208 30.208v47.104h424.96v-47.104c0-16.384 13.312-30.208 30.208-30.208 16.384 0 30.208 13.312 30.208 30.208v47.104h9.216c71.168 0 128.512 57.856 128.512 128.512v91.136c0 62.464-45.056 114.688-104.448 126.464-2.048 114.688-95.744 207.36-210.944 207.36H499.712c-114.688 0-207.872-91.648-210.944-205.824C224.768 409.088 225.28 337.408 225.28 337.408l-2.048-157.696c0-70.656 9.216-111.104 80.384-111.104z m196.096 493.568h186.88c81.408 0 147.456-64.512 150.528-144.896H349.184c3.072 80.384 69.632 144.896 150.528 144.896z m-264.704-273.408c0 37.888 30.72 68.608 68.608 68.608h569.856c37.888 0 68.608-30.72 68.608-68.608v-91.136c0-37.888-30.72-68.608-68.608-68.608H303.616c-37.888 0-68.608 30.72-68.608 68.608v91.136zM301.568 264.192c0-33.28 27.136-60.416 60.416-60.416 33.28 0 60.416 27.136 60.416 60.416 0 33.28-27.136 60.416-60.416 60.416-33.28 0.512-60.416-26.624-60.416-60.416zM754.688 264.192c0-33.28 27.136-60.416 60.416-60.416 33.28 0 60.416 27.136 60.416 60.416 0 33.28-27.136 60.416-60.416 60.416-33.28 0.512-60.416-26.624-60.416-60.416 0 0.512 0 0.512 0 0zM192.512 540.672c-49.664 0-89.6 40.448-89.6 89.6 0 24.064 9.216 46.592 26.112 63.488s39.424 26.112 63.488 26.112c49.664 0 89.6-40.448 89.6-89.6s-39.936-89.6-89.6-89.6z m0 138.24c-26.624 0-48.128-21.504-48.128-48.128s21.504-48.128 48.128-48.128S240.64 604.16 240.64 630.784c0 26.112-21.504 48.128-48.128 48.128zM95.744-5.632c-32.256 0-58.368 26.112-58.368 58.368l1.536 225.28v2.048 3.584l10.24 139.776c1.024 32.256 6.144 73.216 33.792 99.84 18.432 17.408 44.032 26.112 77.824 26.112h7.68l45.568-4.096h5.632l5.632-1.024h2.048c4.608-0.512 9.216-1.024 14.336-2.56L293.888 532.48l93.696 12.8h1.536c24.064 0 43.008-18.944 43.52-42.496 0.512-23.552-18.432-43.008-41.984-43.52l-96.256-12.8-19.968 3.072-9.728-143.36V53.76c0-32.256-26.112-58.368-58.368-58.368h-17.92c-13.824 0-26.624 4.608-36.864 13.312-10.24-8.704-23.552-13.824-37.888-13.824h-17.92z m-15.36 285.184v-2.048l-1.536-224.768c0-9.216 7.68-16.384 16.896-16.384h17.92c8.704 0 15.36 6.144 16.384 14.848v191.488c0 11.264 9.216 20.992 20.992 20.992 7.168 0 13.312-3.584 17.408-9.216 2.56-3.584 3.584-7.68 3.584-11.776V52.224c1.024-8.192 8.192-14.336 16.384-14.336h17.92c9.216 0 16.896 7.68 16.896 16.896v251.392 2.56 1.536l10.752 159.232v2.048 2.048 4.608c1.536 10.24 10.24 17.408 20.48 17.408 1.024 0 2.048 0 3.072-0.512l36.864-5.632 92.672 12.8h2.048c1.024 0 1.536 0.512 1.536 1.536 0 0.512-0.512 1.024-1.024 1.536l-96.768-12.8L220.672 501.76l-54.784 5.12h-5.12c-22.528 0-38.912-4.608-49.152-14.848-13.312-12.288-19.456-34.304-20.992-71.168v-1.024l-10.24-139.776v-0.512z"  horiz-adv-x="1024" />

    
    <glyph glyph-name="rili" unicode="&#59054;" d="M888.2 724.5H744.9V832h-71.7v-107.4H350.7V832H279v-107.4H135.8c-19.8 0-35.9-16.1-35.9-35.9V617h824.2v71.7c0 19.7-16 35.8-35.9 35.8zM99.9-28.1c0-19.8 16.1-35.9 35.9-35.9h752.5c19.8 0 35.9 16.1 35.9 35.9V581.1H99.9v-609.2z m609.2 537.5h143.3v-143.3H709.1V509.4z m0-179.1h143.3V187H709.1V330.3z m0-179.2h143.3v-143.3H709.1V151.1zM529.9 509.4h143.3v-143.3H529.9V509.4z m0-179.1h143.3V187H529.9V330.3z m0-179.2h143.3v-143.3H529.9V151.1zM350.7 509.4H494v-143.3H350.7V509.4z m0-179.1H494V187H350.7V330.3z m0-179.2H494v-143.3H350.7V151.1zM171.5 509.4h143.3v-143.3H171.5V509.4z m0-179.1h143.3V187H171.5V330.3z m0-179.2h143.3v-143.3H171.5V151.1z"  horiz-adv-x="1024" />

    
    <glyph glyph-name="chaopiao" unicode="&#58924;" d="M873.491613 706.576813l-756.213048 0c-29.91738 0-54.169737-24.252357-54.169737-54.169737L63.108828 181.790602c0-29.916357 24.252357-54.168714 54.169737-54.168714l756.213048 0c29.916357 0 54.16769 24.251334 54.16769 54.168714L927.659303 652.407076C927.65828 682.324456 903.407969 706.576813 873.491613 706.576813zM894.033461 181.225737c0-12.814864-10.389628-23.205515-23.205515-23.205515L121.106754 158.020222c-12.815887 0-23.205515 10.389628-23.205515 23.205515L97.901239 652.607644c0 12.815887 10.389628 23.205515 23.205515 23.205515l749.721193 0c12.814864 0 23.205515-10.389628 23.205515-23.205515L894.033461 181.225737zM494.629889 402.294668c39.114856-10.1645 51.689243-20.587897 51.689243-36.953633 0-18.778692-17.316387-31.959899-46.51643-31.959899-30.667463 0-42.037419 14.646582-43.073005 36.178991l-38.074154 0c1.12052-29.718859 19.297508-56.766888 55.301514-65.640999l0-37.724183 51.685149 0 0 37.210483c33.425274 7.321756 60.301388 28.858258 60.301388 62.193481 0 39.798425-32.991392 59.609633-80.97115 71.152527-43.161009 10.338463-51.686173 25.412786-51.686173 41.60763 0 11.799744 8.355295 30.750351 46.517453 30.750351 35.489282 0 49.529043-15.933901 51.339272-36.177967l37.987173 0c-2.153036 37.731346-30.320563 58.833967-63.48694 65.983807l0 37.386492-51.685149 0 0-37.041638c-33.505092-6.461155-60.297294-25.841551-60.297294-61.246923C413.659763 429.25674 455.524243 412.545126 494.629889 402.294668L494.629889 402.294668zM494.629889 402.294668M842.175373 641.020748 150.782633 641.020748c-12.815887 0-23.205515-10.389628-23.205515-23.205515l0-402.820392c0-12.814864 10.389628-23.205515 23.205515-23.205515l691.39274 0c12.814864 0 23.205515 10.389628 23.205515 23.205515L865.380888 617.815233C865.380888 630.63112 854.99126 641.020748 842.175373 641.020748zM496.479003 230.400716c-105.401562 0-190.846606 85.445044-190.846606 190.846606 0 105.401562 85.445044 190.846606 190.846606 190.846606s190.846606-85.445044 190.846606-190.846606C687.325609 315.845761 601.880565 230.400716 496.479003 230.400716z"  horiz-adv-x="1024" />

    
    <glyph glyph-name="yuechi" unicode="&#59030;" d="M860.6 188.7c-12.5 0-51.3 45.1-61.4 55.2l-46.1-46.1 105.6-105.6c8.6-8.6 13.4-20.6 13.4-32.6 0-26.9-30.7-57.6-57.6-57.6-12 0-24 4.8-32.6 13.4l-322 322c-50.4-37.4-111.8-62.9-175.2-62.9-104.6 0-176.6 72.5-176.6 176.6C108.2 608.6 265.6 766 423 766c104.1 0 176.6-72 176.6-176.6 0-63.3-25.4-124.8-62.9-175.2l170.4-170.4 46.1 46.1c-10.1 10.1-55.2 49-55.2 61.4 0 11 44.2 55.2 55.2 55.2 3.8 0 8.2-1.9 11-4.8 17.8-17.8 151.6-144 151.6-157.9 0-11-44.1-55.1-55.2-55.1zM415.3 673.9c-50.9 0-92.1-41.3-92.1-92.1 0-13.9 3.4-27.4 9.1-39.8-12.5 5.8-25.9 9.1-39.8 9.1-50.9 0-92.1-41.3-92.1-92.1s41.3-92.1 92.1-92.1 92.1 41.3 92.1 92.1c0 13.9-3.4 27.4-9.1 39.8 12.5-5.8 25.9-9.1 39.8-9.1 50.9 0 92.1 41.3 92.1 92.1s-41.2 92.1-92.1 92.1z"  horiz-adv-x="1024" />

    
    <glyph glyph-name="jiantou" unicode="&#59303;" d="M357.376 43.690667a25.6 25.6 0 0 1 36.181333-36.181334l358.4 358.4a25.6 25.6 0 0 1 0 36.181334l-358.4 358.4a25.6 25.6 0 0 1-36.181333-36.181334L697.685333 384l-340.309333-340.309333z"  horiz-adv-x="1024" />

    
    <glyph glyph-name="rocket-full" unicode="&#59863;" d="M1013.00999 868.678762c-2.881149 18.479092-3.874648 19.273892-22.85049 22.75114-17.584942 3.278549-35.169885 4.570098-52.854177 4.570098-17.286892 0-34.573785-1.192199-51.761327-2.980499C816.495776 885.866304 749.136506 870.4670610000001 683.764235 846.921122 568.021535 805.1941400000001 465.88978 742.901717 383.230617 650.605608c-3.775298-4.172698-7.649947-5.563598-12.518095-5.563598-1.192199 0-2.384399 0.09935-3.675948 0.1987-34.772485 3.775298-69.644319 9.835646-104.516154 9.835646h-2.384399c-62.193073-0.49675-110.675851-29.010187-144.355487-81.765014-18.379742-28.811487-36.660134-57.722325-55.039876-86.633162-17.088192-26.824488-34.573785-53.251577-51.165227-80.374115-23.54594-38.547783-1.291549-84.844863 42.521781-88.123411 52.754827-3.973998 105.509654-7.153197 158.264481-10.034346 9.537596-0.49675 13.610944-3.079849 14.505093-13.213544 3.179199-33.580285 12.120695-65.570971 30.103037-94.481808 35.070535-56.232075 86.136412-87.129912 151.309984-95.773358 24.539439-3.278549 23.84399-3.477248 25.632288-28.811488 3.477248-50.668478 7.252547-101.436305 12.021345-152.005433 2.980499-31.593286 27.321238-51.860677 54.443776-51.860677 10.729795 0 21.95634 3.179199 32.487436 10.034346 58.914524 38.547783 118.425148 76.499466 175.551373 117.630348 53.251577 38.349083 76.400116 92.395459 69.544969 158.46318-2.881149 28.314738-5.265548 56.728825-8.146696 85.043563-0.89415 8.742796 1.192199 15.399243 8.047346 21.65829 83.553313 76.598816 143.163287 169.292326 183.896769 274.50393 34.077035 88.024061 54.443776 178.829921 57.324925 273.31173 0.09935 2.682449 0.1987 5.364898 0.1987 7.947996 0.29805 16.194043-1.788299 32.189386-4.272048 48.085379zM700.455027 429.253905h-1.092849c-78.983215 0.5961-149.819734 71.333269-148.130785 149.521684 1.986999 92.693509 71.830018 152.402833 153.197633 152.402833h2.781798c79.479965-1.291549 146.342486-70.737169 145.348986-151.508683-1.09285-83.950713-68.45212-150.415834-152.104783-150.415834zM349.550981 3.936741999999981c-27.519938-27.817988-55.337926-55.238576-82.758513-82.957214-6.557097-6.656447-13.610944-10.729795-21.757641-10.729795-3.179199 0-6.557097 0.5961-10.133695 1.986999-13.014844 4.768798-19.273892 14.405744-19.869991 27.917338-0.3974 8.544096-0.1987 17.088192-0.3974 25.632289-0.29805 10.133696-0.3974 13.809644-4.371398 13.809644-2.185699 0-5.464248-1.09285-10.531096-2.781799-30.897836-10.233046-61.696323-20.565441-92.594159-30.798487-4.669448-1.589599-9.438246-2.682449-14.008344-2.682448-4.371398 0-8.742796 0.9935-13.114194 3.377898-13.213544 7.451247-18.181042 20.664791-12.915494 36.858834 10.233046 31.692636 21.062191 63.285922 31.493936 94.978558 4.570098 13.710294 4.272048 14.008344-10.531096 14.306394-8.941496 0.09935-17.882992 0-26.824488 0.3974-13.014844 0.5961-22.25439 6.954497-27.122538 19.273891-4.669448 12.021345-1.688949 22.45309 7.053847 31.295237 28.712137 28.811487 57.523625 57.622975 86.335112 86.335112 5.166198 5.166198 11.325895 8.345396 17.982342 8.345396 0.69545 0 1.390899 0 1.986999-0.09935 15.597943-0.1987 24.241389-7.153197 29.904337-23.04919 21.95634-62.590472 61.895023-109.980402 119.816048-142.169787 12.816144-7.053847 26.228388-12.816144 40.137382-17.584943 25.135539-8.544096 30.798486-32.884836 12.220044-51.661977z"  horiz-adv-x="1024" />

    
    <glyph glyph-name="liulanqi-IE" unicode="&#58884;" d="M981.333 362.667c0-17.067 0-36.267-2.133-53.334H373.333c0-104.533 91.734-181.333 192-181.333 68.267 0 134.4 34.133 168.534 93.867h221.866c-59.733-168.534-217.6-281.6-396.8-281.6-64 0-128 14.933-185.6 44.8C313.6-44.8 232.533-76.8 166.4-76.8c-89.6 0-123.733 53.333-123.733 138.667 0 49.066 10.666 96 25.6 142.933 6.4 29.867 42.666 91.733 57.6 121.6 64 115.2 147.2 230.4 249.6 317.867-78.934-34.134-168.534-121.6-224-185.6 42.666 189.866 213.333 326.4 407.466 326.4h25.6c64 29.866 155.734 61.866 228.267 61.866 83.2 0 157.867-32 157.867-128 0-49.066-19.2-104.533-40.534-151.466 34.134-61.867 51.2-134.4 51.2-204.8zM945.067 697.6c0 59.733-42.667 93.867-98.134 93.867-44.8 0-93.866-17.067-134.4-36.267C800 721.067 870.4 661.333 917.333 584.533c14.934 34.134 27.734 76.8 27.734 113.067zM108.8 51.2c0-61.867 36.267-93.867 96-93.867 46.933 0 98.133 19.2 138.667 44.8C256 53.333 192 132.267 160 226.133c-23.467-51.2-51.2-119.466-51.2-174.933z m264.533 373.333h379.734c-2.134 100.267-93.867 172.8-189.867 172.8-98.133 0-187.733-72.533-189.867-172.8z"  horiz-adv-x="1024" />

    
    <glyph glyph-name="weixin" unicode="&#59065;" d="M685.978 541.696c11.264 0 22.425-0.82 33.484-2.048-30.105 139.776-180.019 243.61-351.027 243.61-191.283 0-347.955-130.048-347.955-295.117 0-95.335 52.122-173.568 139.264-234.189l-34.816-104.346 121.651 60.826c43.52-8.602 78.439-17.408 121.856-17.408 10.957 0 21.709 0.512 32.461 1.331-6.758 23.245-10.752 47.514-10.752 72.704 0 151.552 130.56 274.637 295.834 274.637z m-187.085 94.003c26.214 0 43.52-17.203 43.52-43.315 0-26.01-17.306-43.418-43.52-43.418-26.112 0-52.224 17.408-52.224 43.418 0 26.112 26.112 43.315 52.224 43.315z m-243.507-86.733c-26.112 0-52.43 17.408-52.43 43.418 0 26.112 26.318 43.315 52.43 43.315s43.417-17.203 43.417-43.315c0-25.907-17.305-43.418-43.417-43.418zM1003.52 271.258c0 138.752-139.162 251.801-295.526 251.801-165.581 0-295.936-113.05-295.936-251.801 0-138.957 130.355-251.802 295.936-251.802 34.61 0 69.632 8.704 104.345 17.408l95.437-52.122-26.112 86.733c69.837 52.224 121.856 121.549 121.856 199.783z m-391.475 43.417c-17.306 0-34.816 17.203-34.816 34.714 0 17.305 17.51 34.713 34.816 34.713 26.317 0 43.52-17.408 43.52-34.713 0-17.51-17.203-34.714-43.52-34.714z m191.385 0c-17.203 0-34.508 17.203-34.508 34.714 0 17.305 17.305 34.713 34.508 34.713 26.112 0 43.52-17.408 43.52-34.713 0-17.51-17.408-34.714-43.52-34.714z"  horiz-adv-x="1024" />

    
    <glyph glyph-name="app" unicode="&#58880;" d="M503 468.5v-75.2h21.5c29.2 0 43.7 12.7 43.7 38 0 24.8-14.4 37.1-43.3 37.1l-21.9 0.1zM792.4 566V776c0 30.9-25.1 56-56 56h-448c-30.9 0-56-25.1-56-56v-210H128v-349.9h104.4v-224c0-30.9 25.1-56 56-56h447.9c30.9 0 56 25.1 56 56v224h103.4V566H792.4z m-56 196v-196h-448V762h448zM620.5 433.3c0-23.9-8.8-43-26.2-57.4-17.5-14.4-39.4-21.3-65.6-20.7H503V274h-49.6V507h80.2c57.9 0 86.9-24.6 86.9-73.7zM261.2 327.5l-17.1-53.4h-53.8L275.5 507h58.4l83.6-232.9h-54.1L346 327.5h-84.8z m251.2-363.4c-15.5 0-28 12.5-28 28s12.5 28 28 28 28-12.5 28-28c0-15.4-12.5-28-28-28z m224 84h-448v168h447.9v-168h0.1zM790.2 376c-17.5-14.4-39.4-21.3-65.6-20.7H699v-81.2h-49.6V507h80.1c58 0 86.9-24.6 86.9-73.7 0-23.8-8.7-43-26.2-57.3z m-69.3 92.5h-22v-75.2h21.5c29.2 0 43.8 12.7 43.8 38 0 24.8-14.4 37.2-43.3 37.2z m-416.8-1.6h-1.4c-0.6-6.8-1.9-13.4-4-19.7l-26.6-81.3h62.1l-26.5 80.7c-1.7 5.1-2.9 11.8-3.6 20.3z"  horiz-adv-x="1024" />

    
    <glyph glyph-name="xiaochengxu" unicode="&#58910;" d="M534.528 749.714286A388.388571 388.388571 0 0 1 146.285714 361.472a388.388571 388.388571 0 0 1 388.242286-388.242286 388.388571 388.388571 0 0 1 388.242286 388.242286A387.900952 387.900952 0 0 1 534.528 749.714286z m128.877714-416.963048c-17.066667-3.120762-31.841524 0-39.594666 16.286476-6.972952 15.555048 3.120762 26.428952 13.994666 35.742476 5.412571 4.632381 11.605333 7.801905 17.846857 10.873905 25.6 14.726095 47.34781 34.133333 34.133334 66.80381-11.605333 30.232381-39.594667 38.034286-69.095619 34.133333-34.133333-4.681143-52.809143-24.868571-52.809143-59.782095 0-53.589333 1.560381-107.958857-0.731429-161.499429-3.120762-60.562286-67.584-114.151619-129.706666-111.811047-66.80381 2.29181-120.344381 56.661333-119.564191 136.630857 1.560381 37.302857 34.962286 67.584 80.749714 87.771428 19.407238 8.533333 38.034286 8.533333 48.908191-13.214476 12.434286-25.648762-8.533333-34.133333-25.6-41.935238-34.133333-14.774857-51.248762-38.814476-34.962286-73.776762 15.555048-32.572952 47.396571-39.594667 80.749714-27.940571 27.989333 9.313524 38.863238 31.841524 38.034286 61.342476a4574.159238 4574.159238 0 0 0 0 145.993143c0.828952 58.221714 27.989333 95.47581 81.578667 114.883047 48.90819 17.066667 109.470476 1.560381 142.872381-37.254095 49.688381-61.342476 11.605333-166.960762-66.80381-183.247238z"  horiz-adv-x="1024" />

    


  </font>
</defs>
</svg>
